<?xml version="1.0" encoding="utf-8"?> <!-- Generator: Adobe Illustrator 23.0.2, SVG Export Plug-In . SVG Version: 6.00 Build 0)  --> <svg version="1.1" id="Layer_1" xmlns="http://www.w3.org/2000/svg" xmlns:xlink="http://www.w3.org/1999/xlink" x="0px" y="0px" viewBox="0 0 4.5 4.5" style="enable-background:new 0 0 4.5 4.5;" xml:space="preserve"> <style type="text/css"> .st0{fill:#4E525B;} .st1{fill:#444851;} </style> <g> <g> <path class="st0" d="M2.25,0.16c1.16,0,2.09,0.94,2.09,2.09c0,1.1-0.84,2-1.91,2.09C2.37,4.35,2.31,4.35,2.25,4.35 C2.1,4.35,1.94,4.33,1.8,4.3C0.86,4.09,0.15,3.25,0.15,2.25C0.15,1.09,1.1,0.16,2.25,0.16 M2.25,0.05c-1.22,0-2.21,0.99-2.21,2.2 c0,1.02,0.73,1.93,1.73,2.15c0.15,0.03,0.31,0.05,0.48,0.05c0.07,0,0.13,0,0.2-0.01c1.12-0.09,2-1.05,2-2.19 C4.45,1.04,3.47,0.05,2.25,0.05L2.25,0.05z"/> </g> <g> <path class="st1" d="M2.49,1.81c0.03-0.04,0.1-0.07,0.19-0.07c0.09,0,0.19,0.01,0.29,0.04l0.08-0.44 C2.88,1.29,2.71,1.27,2.53,1.27c-0.18,0-0.32,0.03-0.43,0.09C1.98,1.42,1.91,1.5,1.86,1.6C1.82,1.69,1.8,1.85,1.8,2.04v0.17H1.45 v0.5H1.8V4.3c0.15,0.03,0.3,0.05,0.45,0.05c0.06,0,0.12,0,0.18-0.01V2.72h0.46v-0.5H2.43V2.05C2.43,1.93,2.45,1.85,2.49,1.81z"/> </g> </g> </svg>