<?xml version="1.0" encoding="utf-8"?> <!-- Generator: Adobe Illustrator 23.0.2, SVG Export Plug-In . SVG Version: 6.00 Build 0)  --> <svg version="1.1" id="Layer_1" xmlns="http://www.w3.org/2000/svg" xmlns:xlink="http://www.w3.org/1999/xlink" x="0px" y="0px" viewBox="0 0 4.5 4.5" style="enable-background:new 0 0 4.5 4.5;" xml:space="preserve"> <style type="text/css"> .st0{fill:#4E525B;} .st1{fill-rule:evenodd;clip-rule:evenodd;fill:#444851;} </style> <g> <g> <path class="st0" d="M2.25,0.15c1.16,0,2.1,0.94,2.1,2.1c0,1.16-0.94,2.1-2.1,2.1c-1.16,0-2.09-0.94-2.09-2.1 C0.15,1.09,1.09,0.15,2.25,0.15 M2.25,0.05c-1.21,0-2.2,0.99-2.2,2.2c0,1.21,0.99,2.2,2.2,2.2c1.21,0,2.2-0.99,2.2-2.2 C4.45,1.04,3.46,0.05,2.25,0.05L2.25,0.05z"/> </g> <g> <path class="st1" d="M3.08,1.12c-0.55,0-1.11,0-1.67,0c-0.2,0-0.3,0.11-0.3,0.3c0,0.28,0,0.55,0,0.83c0,0.28,0,0.56,0,0.84 c0,0.19,0.11,0.3,0.29,0.3c0.56,0,1.12,0,1.68,0c0.19,0,0.3-0.1,0.3-0.3c0-0.56,0-1.11,0-1.67C3.38,1.22,3.28,1.12,3.08,1.12z M2.9,1.38c0.22,0,0.22,0,0.22,0.22c0,0.22,0,0.22-0.22,0.22c-0.22,0-0.22,0-0.22-0.22C2.68,1.38,2.68,1.38,2.9,1.38z M2.25,1.81 c0.24,0,0.44,0.2,0.44,0.44c0,0.24-0.2,0.44-0.44,0.44c-0.24,0-0.44-0.21-0.43-0.44C1.82,2.01,2.02,1.81,2.25,1.81z M3.12,2.99 c0,0.11-0.03,0.13-0.13,0.13c-0.25,0-0.49,0-0.74,0c-0.25,0-0.49,0-0.74,0c-0.1,0-0.13-0.03-0.13-0.13c0-0.27,0-0.55,0-0.83 c0-0.08,0.02-0.09,0.09-0.09c0.1,0.01,0.11,0,0.09,0.11c-0.04,0.35,0.2,0.69,0.55,0.76C2.46,3,2.82,2.79,2.92,2.45 c0.03-0.11,0.04-0.22,0.02-0.33c-0.01-0.04,0-0.05,0.04-0.05c0.16-0.01,0.16-0.01,0.16,0.15C3.12,2.47,3.12,2.73,3.12,2.99z"/> </g> </g> </svg>