<?xml version="1.0" encoding="utf-8"?> <!-- Generator: Adobe Illustrator 23.0.2, SVG Export Plug-In . SVG Version: 6.00 Build 0)  --> <svg version="1.1" id="Layer_1" xmlns="http://www.w3.org/2000/svg" xmlns:xlink="http://www.w3.org/1999/xlink" x="0px" y="0px" viewBox="0 0 4.5 4.5" style="enable-background:new 0 0 4.5 4.5;" xml:space="preserve"> <style type="text/css"> .st0{fill:#4E525B;} .st1{fill-rule:evenodd;clip-rule:evenodd;fill:#444851;} </style> <g> <path class="st0" d="M2.25,0.15c1.16,0,2.09,0.94,2.09,2.1c0,1.16-0.94,2.1-2.09,2.1c-1.16,0-2.1-0.94-2.1-2.1 C0.16,1.09,1.09,0.15,2.25,0.15 M2.25,0.05c-1.21,0-2.2,0.99-2.2,2.2s0.99,2.2,2.2,2.2c1.21,0,2.2-0.99,2.2-2.2 S3.46,0.05,2.25,0.05L2.25,0.05z"/> </g> <g> <path class="st1" d="M0.91,3.1C1.11,3.12,1.31,3.09,1.49,3c0.08-0.04,0.16-0.08,0.23-0.14c-0.09,0-0.17-0.02-0.24-0.06 C1.36,2.74,1.27,2.65,1.22,2.51C1.21,2.48,1.21,2.48,1.24,2.49c0.09,0.01,0.15,0.01,0.2-0.01C1.39,2.46,1.35,2.45,1.31,2.42 c-0.18-0.1-0.28-0.26-0.3-0.47c0-0.02,0-0.03,0.03-0.02c0.06,0.04,0.13,0.05,0.22,0.06C1.22,1.96,1.19,1.94,1.16,1.91 C1.01,1.75,0.98,1.49,1.08,1.29C1.09,1.26,1.1,1.26,1.11,1.28c0.26,0.3,0.58,0.47,0.96,0.54C2.11,1.82,2.16,1.82,2.2,1.83 c0.03,0,0.03-0.01,0.03-0.03C2.18,1.57,2.29,1.34,2.5,1.23c0.21-0.12,0.48-0.08,0.65,0.08c0.02,0.02,0.04,0.02,0.06,0.01 c0.1-0.02,0.2-0.06,0.29-0.11c0.01,0,0.01-0.01,0.02-0.01C3.48,1.32,3.4,1.42,3.29,1.5c0.11-0.01,0.2-0.04,0.3-0.08 c0,0.01-0.01,0.02-0.01,0.03C3.51,1.54,3.43,1.62,3.34,1.69C3.33,1.7,3.32,1.71,3.32,1.73c0.01,0.4-0.12,0.76-0.38,1.08 C2.7,3.09,2.39,3.26,2.02,3.32c-0.39,0.06-0.76,0-1.1-0.21C0.92,3.11,0.92,3.1,0.91,3.1z"/> </g> </svg>